<?xml version="1.0" encoding="UTF-8" standalone="no"?>
<!-- Created with Inkscape (http://www.inkscape.org/) -->

<svg
   version="1.1"
   id="svg1"
   width="1080"
   height="1080"
   viewBox="0 0 1080 1080"
   xml:space="preserve"
   xmlns:xlink="http://www.w3.org/1999/xlink"
   xmlns="http://www.w3.org/2000/svg"
   xmlns:svg="http://www.w3.org/2000/svg"><defs
     id="defs1"><linearGradient
       id="linearGradient201"><stop
         style="stop-color:#1f5e54;stop-opacity:1;"
         offset="0"
         id="stop201" /><stop
         style="stop-color:#2f8f8b;stop-opacity:1;"
         offset="0.5"
         id="stop203" /><stop
         style="stop-color:#1f5e54;stop-opacity:1;"
         offset="1"
         id="stop202" /></linearGradient><clipPath
       clipPathUnits="userSpaceOnUse"
       id="clipPath3"><path
         d="M 0,1024 H 1024 V 0 H 0 Z"
         transform="translate(-647.32672,-626.80521)"
         id="path3" /></clipPath><radialGradient
       xlink:href="#linearGradient201"
       id="radialGradient7"
       cx="-135.32657"
       cy="-8.8568249"
       fx="-135.32657"
       fy="-8.8568249"
       r="270.01953"
       gradientTransform="matrix(1,0,0,1.001054,0,0.00933475)"
       gradientUnits="userSpaceOnUse" /></defs><g
     id="layer-MC0"
     style="display:none"><path
       id="path1"
       d="M 0,0 H 1024 V 1024 H 0 Z"
       style="fill:#f7f5f6;fill-opacity:1;fill-rule:nonzero;stroke:none"
       transform="matrix(1.3333333,0,0,-1.3333333,0,1365.3333)" /></g><g
     id="layer-MC1"
     transform="matrix(1.8941636,0,0,1.8941636,-610.41569,-342.83729)"><path
       id="path2"
       clip-path="url(#clipPath3)"
       style="display:inline;fill:url(#radialGradient7);fill-opacity:1;fill-rule:nonzero;stroke:none"
       d="m -135.70126,261.44731 -56.40012,-57.04122 c -19.366,-19.586 -19.27625,-51.36504 0.19875,-70.84004 l 26.61006,-26.61084 19.7992,19.79921 -26.61006,26.61083 c -8.618,8.618 -8.66016,22.68399 -0.0882,31.35299 l 36.60246,37.01776 44.103152,-44.10238 c 8.634,5.449 18.112339,9.33152 28.093339,11.50352 z m 1.25823,-73.93574 -19.79765,-19.7992 19.35298,-19.35376 9.8996,9.89883 v 7.7e-4 l 9.89883,9.89883 z m -83.49661,-7.45969 -106.33662,-0.59548 0.15699,-27.99977 38.81191,0.21732 c 5.331,0.03 10.45581,-2.06015 14.24581,-5.81015 l 73.59083,-72.815166 0.0394,0.03789 19.76053,19.761309 -59.72241,59.093687 20.81306,0.116 c -1.515,5.475 -2.3154,11.18686 -2.3154,17.02986 0,3.716 0.33486,7.3775 0.95586,10.9645 z m 270.641698,-1.26907 -27.999764,-0.15698 0.21731,-38.81192 c 0.03,-5.331 -2.060149,-10.4558 -5.810149,-14.2458 l -72.815163,-73.590834 0.03789,-0.03944 19.76131,-19.760536 59.093685,59.723189 0.116002,-20.81306 c 5.475,1.515 11.186852,2.314625 17.029852,2.314625 3.716,0 7.377499,-0.334856 10.964499,-0.955856 z m -95.689191,-1.55133 c -8.952,0 -17.661302,-1.55584 -25.831302,-4.52484 l 0.04253,0.0425 c -2.101,-0.767 -4.161674,-1.63339 -6.183674,-2.58839 -0.619,-0.29 -1.227243,-0.60245 -1.838243,-0.90945 -0.333,-0.168 -0.667617,-0.32968 -0.997617,-0.50268 -0.85,-0.443 -1.689654,-0.90829 -2.522654,-1.38429 -0.048,-0.028 -0.0979,-0.0532 -0.146936,-0.0812 l 0.0023,-7.7e-4 c -5.737,-3.294 -11.084393,-7.35068 -15.888393,-12.15468 l -91.561068,-91.561071 19.79921,-19.798431 91.561062,91.560292 c 8.902,8.902 20.975765,13.90322 33.564761,13.90322 h 20.121689 l -74.202546,-72.058832 -9.284016,9.019534 -19.51074,-20.082248 28.79089,-27.972698 86.080366,83.596384 c 4.7530003,4.616 21.86979,20.23962 24.67979,55.49762 z M -322.01345,140.58571 v -7.7e-4 -56.674662 c 0,-8.952 1.55585,-17.662076 4.52485,-25.832076 l -0.0425,0.04331 c 0.767,-2.101 1.63339,-4.162448 2.58839,-6.184448 0.29,-0.619 0.60246,-1.227243 0.90946,-1.838243 0.168,-0.333 0.32967,-0.667617 0.50267,-0.997617 0.443,-0.85 0.90829,-1.688881 1.38429,-2.521881 0.028,-0.048 0.0532,-0.0979 0.0812,-0.146936 l 7.7e-4,0.0023 c 3.294,-5.737 7.35068,-11.083619 12.15468,-15.887619 l 91.56107,-91.56107 19.79843,19.799204 -91.56029,91.561069 c -8.902,8.902 -13.90322,20.975762 -13.90322,33.564762 v 20.120917 l 72.05883,-74.201774 -9.01953,-9.284018 20.08225,-19.5115191 27.97269,28.7916701 -83.59638,86.079591 c -4.616,4.753 -20.23962,21.86979 -55.49762,24.67979 z m -11.02328,-76.197778 -72.30939,-72.3093948 57.04045,-56.4001212 c 19.586,-19.366 51.36504,-19.275477 70.84004,0.199523 l 26.61161,26.610061 -19.79921,19.798431 -26.61083,-26.610062 c -8.618,-8.618 -22.68399,-8.659388 -31.35299,-0.08739 l -37.01853,36.6016914 44.10315,44.1031476 c -5.449,8.634 -9.3323,18.113112 -11.5043,28.094112 z M 42.190739,61.074145 C 29.363364,61.03802 16.549208,56.146685 6.8117079,46.409185 L -19.799127,19.799123 7.6553036e-5,-8.0029552e-5 26.610911,26.609981 c 8.618,8.618 22.683993,8.660162 31.352993,0.08816 L 94.981655,-9.9043219 50.879281,-54.006696 c 5.449,-8.634 9.331522,-18.113112 11.503522,-28.094112 L 134.69297,-9.7921867 77.651745,46.607935 c -9.793,9.683 -22.633631,14.502335 -35.461006,14.46621 z M -62.304542,43.301108 -82.102972,23.502677 9.4573244,-68.058392 c 8.9019996,-8.902 13.9024406,-20.976535 13.9024406,-33.565538 v -20.12091 l -72.058831,74.202543 9.020308,9.284018 -20.082249,19.510746 -27.972697,-28.790897 83.5956063,-86.08037 c 4.61599997,-4.753 20.2403997,-21.86979 55.4983997,-24.67979 v 56.67466 c 0,8.952003 -1.555847,17.662078 -4.524847,25.832078 l 0.04253,-0.04253 c -0.767,2.101 -1.634162,4.161675 -2.589162,6.183675 -0.29,0.619 -0.601682,1.227243 -0.908682,1.838243 -0.168,0.333 -0.329674,0.667616 -0.502674,0.997616 -0.443,0.85 -0.90829,1.688881 -1.38429,2.521881 -0.028,0.048 -0.0532,0.09871 -0.0812,0.147709 l -7.73e-4,-0.0023 c -3.294,5.737 -7.351452,11.08362 -12.155452,15.88762 z m -249.752078,-30.609807 -19.35376,-19.3545299 19.7992,-19.7976571 19.35376,19.3529832 -9.89883,9.8996017 h -7.7e-4 z M 40.958026,8.7480096 21.60427,-10.604973 41.4027,-30.404177 60.757229,-11.050421 Z m -277.704676,-58.6381846 -59.09445,-59.723185 -0.11601,20.813056 c -5.475,-1.515 -11.18685,-2.315398 -17.02985,-2.315398 -3.716,0 -7.37672,0.335629 -10.96372,0.956629 l 0.5947,-106.337387 28.00054,0.15699 -0.21731,38.81191 c -0.03,5.331 2.06015,10.45581 5.81015,14.24581 l 72.81516,73.591598 -0.0387,0.03867 z m 63.16536,-5.960951 -86.08037,-83.595604 c -4.753,-4.616 -21.86979,-20.2404 -24.67979,-55.4984 h 56.67466 c 8.952,0 17.66208,1.55585 25.83208,4.52485 l -0.0425,-0.0425 c 2.101,0.767 4.16168,1.63416 6.18368,2.58916 0.619,0.29 1.22724,0.60168 1.83824,0.90868 0.333,0.168 0.66762,0.33045 0.99762,0.50345 0.85,0.443 1.68888,0.90752 2.52188,1.38352 0.048,0.028 0.0979,0.0532 0.14693,0.0812 l -0.002,7.7e-4 c 5.737,3.294 11.08362,7.35145 15.88762,12.15546 l 91.561071,91.560292 -19.799201,19.799203 -91.5603,-91.561065 c -8.902,-8.902 -20.97653,-13.90244 -33.56553,-13.90244 h -20.12092 l 74.20177,72.058826 9.28402,-9.020306 19.51152,20.082247 z m 100.398091,-34.911157 -0.03867,-0.03789 -19.761309,-19.762087 59.723189,-59.09291 -20.81306,-0.116 c 1.515,-5.475 2.315398,-11.18686 2.315398,-17.02986 0,-3.716 -0.335629,-7.37672 -0.956629,-10.96372 l 106.337391,0.5947 -0.156989,27.99977 -38.811915,-0.21654 c -5.3309997,-0.03 -10.4565791,2.05937 -14.24657912,5.80937 z m -32.178151,-33.906577 -19.79843,-19.79921 26.609286,-26.61083 c 8.618,-8.618 8.660162,-22.68399 0.08816,-31.35299 l -36.601686,-37.01776 -44.10315,44.10315 c -8.634,-5.449 -18.11311,-9.33229 -28.09411,-11.50429 l 72.30939,-72.31017 56.400121,57.04122 c 19.366,19.586 19.275477,51.36504 -0.199523,70.84004 z m -30.4041,-41.40263 -19.7992,-19.7992 19.35453,-19.35376 19.79765,19.79843 z"
       transform="matrix(1.0550959,0,0,-1.054687,750.31983,456.74174)" /></g></svg>
